<svg style="enable-background:new 0 0 32 32" viewBox="0 0 32 32" xml:space="preserve" xmlns="http://www.w3.org/2000/svg"><style>.st2{fill:#fbc34e}</style><g id="Sword"><path style="fill:#c77c58" d="m8.205 18.305-.367 1.816-3.787 3.786 4.042 4.042 3.786-3.787 1.815-.367z"/><path d="M29 2h-4.73a.996.996 0 0 0-.707.293L9.292 16.564l1.414 1.414.951.951 7.964-7.964a.999.999 0 1 1 1.414 1.414l-7.964 7.964.951.951 1.414 1.414L29.707 8.437A.997.997 0 0 0 30 7.73V3a1 1 0 0 0-1-1z" style="fill:#e4edf2"/><path class="st2" d="m4.051 23.907-.344-.344a.999.999 0 1 0-1.414 1.414l4.73 4.73a1 1 0 0 0 1.414-1.414l-.344-.344-4.042-4.042z"/><path d="M21.035 12.379a.999.999 0 1 0-1.414-1.414l-7.964 7.964 1.414 1.414 7.964-7.964z" style="fill:#8b9ca5"/><path class="st2" d="m14.021 21.294-.951-.951-1.414-1.414-.951-.951-1.414-1.414-.951-.951.089-.089a.999.999 0 1 0-1.414-1.414l-.795.796a.999.999 0 0 0 0 1.414l1.985 1.985 5.49 5.49 1.985 1.985a.997.997 0 0 0 1.414 0l.796-.796a.999.999 0 1 0-1.414-1.414l-.089.089-.951-.951-1.415-1.414z"/></g></svg>