<svg style="enable-background:new 0 0 32 32" viewBox="0 0 32 32" xml:space="preserve" xmlns="http://www.w3.org/2000/svg"><path d="M16 6.63V25.5a.48.48 0 0 0 .306-.116c4.477-4.055 7.318-9.778 8.004-16.04L16 6.63z" style="fill:#7a442a"/><path d="M16 6.63 7.679 9.344c.697 6.251 3.527 11.975 8.015 16.04A.48.48 0 0 0 16 25.5V6.63z" style="fill:#c77c58"/><path d="M28.339 5.889 16.736 2.115a2.49 2.49 0 0 0-1.485.004l-11.59 3.77c-.412.134-.691.548-.691.981 0 8.403 3.422 16.324 9.391 21.733a5.437 5.437 0 0 0 7.281-.003c5.966-5.407 9.388-13.328 9.388-21.731V6.84a1 1 0 0 0-.691-.951zM16.307 25.384A.485.485 0 0 1 16 25.5a.48.48 0 0 1-.306-.116c-4.488-4.065-7.318-9.789-8.015-16.04L16 6.63l8.31 2.714c-.686 6.262-3.526 11.985-8.003 16.04z" style="fill:#e4edf2"/></svg>