<svg style="enable-background:new 0 0 32 32" viewBox="0 0 32 32" xml:space="preserve" xmlns="http://www.w3.org/2000/svg"><path d="M27.49 5.93c-3.13-3.09-8.15-3.19-11.47-.33-.01 0-.01 0-.02.01-3.197-2.932-8.529-2.768-11.53.37-3.29 3.29-3.29 8.65 0 11.94l9.85 9.88a2.37 2.37 0 0 0 3.36 0l9.85-9.88c3.292-3.151 3.264-8.859-.04-11.99zM10.43 8.5a3.432 3.432 0 0 0-3.235 2.305.999.999 0 0 1-1.271.62 1 1 0 0 1-.62-1.271 5.423 5.423 0 0 1 1.288-2.061A5.395 5.395 0 0 1 10.43 6.5a1 1 0 0 1 0 2z" style="fill:#f25949"/><path d="M10.43 6.5c-1.447 0-2.81.565-3.838 1.593a5.44 5.44 0 0 0-1.287 2.061 1 1 0 0 0 1.891.651c.167-.486.448-.935.812-1.298A3.4 3.4 0 0 1 10.43 8.5a1 1 0 0 0 0-2z" style="fill:#fff"/></svg>